<svg width="558" height="591" viewBox="0 0 558 591" fill="none" xmlns="http://www.w3.org/2000/svg">
<path d="M76.6409 463.039L69.9931 436.81C58.2078 431.813 46.1503 427.485 33.8779 423.848L33.0394 436.038L29.6358 422.608C14.4161 418.26 4.06213 416.346 4.06213 416.346C4.06213 416.346 18.0508 469.559 47.3869 510.241L81.5675 516.246L55.014 520.079C58.7057 524.522 62.6731 528.728 66.8926 532.673C109.567 572.303 157.097 590.484 173.054 573.281C189.011 556.078 167.352 510.006 124.677 470.376C111.447 458.09 94.8285 448.231 78.1933 440.472L76.6409 463.039Z" fill="#4BC892"/>
<path d="M139.851 434.551L147.711 408.659C140.203 398.286 132.117 388.345 123.491 378.884L116.475 388.885L120.499 375.628C109.717 364.035 101.842 357.041 101.842 357.041C101.842 357.041 86.3274 409.829 90.4245 459.827L116.582 482.646L91.8715 472.193C92.7364 477.906 93.9597 483.559 95.5339 489.118C111.593 545.115 142.888 585.262 165.435 578.788C187.981 572.315 193.241 521.672 177.182 465.676C172.204 448.316 163.07 431.281 152.838 416.035L139.851 434.551Z" fill="#4ED199"/>
<path d="M279 591C433.087 591 558 584.609 558 576.725C558 568.84 433.087 562.449 279 562.449C124.913 562.449 0 568.84 0 576.725C0 584.609 124.913 591 279 591Z" fill="#3F3D56"/>
<path d="M442.004 137.161H438.834V50.2829C438.834 43.6797 437.534 37.1411 435.009 31.0404C432.484 24.9398 428.782 19.3967 424.115 14.7275C419.449 10.0583 413.909 6.35446 407.812 3.82751C401.715 1.30057 395.18 -1.97881e-05 388.581 2.25802e-10H204.626C198.027 -1.45807e-05 191.492 1.30058 185.395 3.82752C179.298 6.35447 173.758 10.0583 169.092 14.7275C164.425 19.3967 160.724 24.9398 158.198 31.0404C155.673 37.1411 154.373 43.6797 154.373 50.2829V526.905C154.373 533.508 155.673 540.046 158.198 546.147C160.724 552.248 164.425 557.791 169.092 562.46C173.758 567.129 179.298 570.833 185.395 573.36C191.492 575.887 198.027 577.187 204.626 577.187H388.581C395.18 577.187 401.715 575.887 407.812 573.36C413.909 570.833 419.449 567.129 424.115 562.46C428.782 557.791 432.484 552.248 435.009 546.147C437.534 540.046 438.834 533.508 438.834 526.905V199.003H442.004V137.161Z" fill="#3F3D56"/>
<path d="M428.138 50.6338V526.554C428.138 536.514 424.184 546.065 417.146 553.107C410.107 560.15 400.562 564.106 390.608 564.106H205.77C195.817 564.106 186.271 560.15 179.233 553.107C172.194 546.065 168.24 536.514 168.24 526.554V50.6338C168.24 40.6743 172.194 31.1228 179.233 24.0804C186.271 17.038 195.817 13.0815 205.77 13.0813H228.193C227.092 15.7905 226.672 18.729 226.972 21.6385C227.271 24.548 228.281 27.3392 229.911 29.7667C231.542 32.1942 233.744 34.1835 236.323 35.5597C238.903 36.9359 241.78 37.6568 244.704 37.6589H350.09C353.013 37.6568 355.89 36.9359 358.47 35.5597C361.049 34.1835 363.251 32.1942 364.882 29.7667C366.512 27.3392 367.522 24.548 367.821 21.6385C368.121 18.729 367.701 15.7905 366.6 13.0813H390.608C400.562 13.0815 410.107 17.038 417.146 24.0804C424.184 31.1228 428.138 40.6743 428.138 50.6338V50.6338Z" fill="white"/>
<path d="M428.138 424.302V526.554C428.138 536.514 424.184 546.065 417.146 553.108C410.107 560.15 400.562 564.106 390.608 564.107H205.77C195.817 564.106 186.271 560.15 179.233 553.108C172.194 546.065 168.24 536.514 168.24 526.554V434.271C184.091 415.653 203.63 400.527 225.621 389.85C247.612 379.173 271.578 373.176 296.004 372.239C320.429 371.302 344.783 375.445 367.527 384.407C390.271 393.368 410.909 406.953 428.138 424.302Z" fill="#E6E6E6"/>
<path d="M255.359 405.397H247.89L250.379 259.388H252.87L255.359 405.397Z" fill="#E6E6E6"/>
<path d="M261.584 167.464L273.643 148.817C270.067 138.933 265.937 129.258 261.272 119.84L253.474 126.141L259.648 116.594C253.764 105.005 249.135 97.7032 249.135 97.7032C249.135 97.7032 224.951 135.835 216.871 176.209L232.345 200.137L215.215 186.293C214.605 190.996 214.291 195.733 214.275 200.475C214.275 248.291 229.882 287.053 249.135 287.053C268.387 287.053 283.994 248.291 283.994 200.475C283.994 185.652 280.643 170.144 276.02 155.798L261.584 167.464Z" fill="#E6E6E6"/>
<path d="M212.008 415.707H208.384L209.592 344.895H210.8L212.008 415.707Z" fill="#E6E6E6"/>
<path d="M215.026 300.312L220.875 291.269C219.14 286.475 217.137 281.783 214.875 277.215L211.093 280.271L214.087 275.641C211.234 270.02 208.988 266.479 208.988 266.479C208.988 266.479 197.259 284.973 193.341 304.554L200.846 316.159L192.538 309.444C192.242 311.725 192.089 314.022 192.082 316.322C192.082 339.513 199.651 358.312 208.988 358.312C218.326 358.312 225.895 339.513 225.895 316.322C225.895 309.133 224.269 301.612 222.027 294.654L215.026 300.312Z" fill="#E6E6E6"/>
<path d="M306.329 415.707H302.706L303.913 344.895H305.121L306.329 415.707Z" fill="#E6E6E6"/>
<path d="M309.347 300.312L315.196 291.269C313.461 286.475 311.458 281.783 309.196 277.215L305.414 280.271L308.408 275.641C305.555 270.02 303.309 266.479 303.309 266.479C303.309 266.479 291.58 284.973 287.662 304.554L295.167 316.159L286.859 309.444C286.563 311.725 286.41 314.022 286.403 316.322C286.403 339.513 293.972 358.312 303.309 358.312C312.647 358.312 320.216 339.513 320.216 316.322C320.216 309.133 318.59 301.612 316.348 294.654L309.347 300.312Z" fill="#E6E6E6"/>
<path d="M209.25 180.977C227.635 180.977 242.54 166.064 242.54 147.667C242.54 129.271 227.635 114.358 209.25 114.358C190.865 114.358 175.96 129.271 175.96 147.667C175.96 166.064 190.865 180.977 209.25 180.977Z" fill="#E6E6E6"/>
<path d="M329.626 185.718L390.388 187.228L398.567 114.732H329.626V185.718Z" fill="#2F2E41"/>
<path d="M314.485 128.922L297.724 64.6206C297.724 64.6206 302.355 33.7537 313.556 34.2629C324.757 34.7721 310.648 64.4389 310.648 64.4389L329.626 119.984L314.485 128.922Z" fill="#FFB8B8"/>
<path d="M347.342 290.035L349.967 316.297C349.967 316.297 267.289 372.762 267.289 396.398C267.289 420.034 264.664 494.883 264.664 494.883L294.848 496.196L297.473 460.741C297.473 460.741 304.035 421.348 300.098 406.903L343.405 374.075C343.405 374.075 330.282 389.832 332.906 417.408C335.531 444.984 328.969 498.822 328.969 498.822L360.466 501.448C360.466 501.448 364.403 472.56 365.715 469.933C367.028 467.307 373.59 420.034 367.028 406.903L420.834 343.873C420.834 343.873 439.207 320.237 420.834 296.6L410.335 291.348L347.342 290.035Z" fill="#2F2E41"/>
<path d="M265.976 489.63L263.352 506.701L246.291 547.408C246.291 547.408 217.419 561.852 238.417 564.479C259.415 567.105 267.289 561.852 271.226 555.287C275.163 548.721 283.037 538.216 283.037 538.216L281.725 565.792H288.286L299.042 528.127C300.094 524.521 300.277 520.717 299.575 517.026C298.874 513.336 297.307 509.865 295.005 506.898C294.953 506.832 294.901 506.767 294.848 506.701C289.599 500.135 292.224 490.943 292.224 490.943L265.976 489.63Z" fill="#2F2E41"/>
<path d="M331.594 489.63L328.969 506.701L311.909 547.408C311.909 547.408 283.037 561.852 304.035 564.479C325.032 567.105 332.906 561.852 336.844 555.287C340.781 548.721 348.655 538.216 348.655 538.216L347.342 565.792H353.904L364.659 528.127C365.712 524.521 365.895 520.717 365.193 517.026C364.491 513.336 362.925 509.865 360.622 506.898C360.571 506.832 360.518 506.767 360.466 506.701C355.217 500.135 357.841 490.943 357.841 490.943L331.594 489.63Z" fill="#2F2E41"/>
<path d="M363.091 154.782C377.587 154.782 389.338 143.024 389.338 128.52C389.338 114.015 377.587 102.257 363.091 102.257C348.595 102.257 336.844 114.015 336.844 128.52C336.844 143.024 348.595 154.782 363.091 154.782Z" fill="#FFB8B8"/>
<path d="M361.778 150.843L373.59 178.419L397.212 160.035C397.212 160.035 382.776 140.338 382.776 137.712L361.778 150.843Z" fill="#FFB8B8"/>
<path d="M364.403 166.6L370.002 170.043C370.002 170.043 388.092 160.446 392.652 153.675C392.652 153.675 409.023 148.217 415.585 161.348C422.147 174.479 411.648 265.085 411.648 265.085C411.648 265.085 418.21 274.277 416.897 278.216C415.585 282.156 420.834 288.722 420.834 288.722V296.6C420.834 296.6 346.03 297.913 346.03 291.348V270.338L338.156 267.711C338.156 267.711 330.282 284.782 327.657 283.469C325.032 282.156 311.909 271.651 311.909 271.651C311.909 271.651 332.907 202.055 344.718 190.237L359.154 165.287L364.403 166.6Z" fill="#6C63FF"/>
<path d="M361.778 167.914C361.778 167.914 359.154 162.661 355.217 161.348C351.279 160.035 331.594 132.459 331.594 132.459L334.219 118.015L307.972 114.075C307.972 114.075 309.284 128.52 314.534 137.712C319.783 146.904 348.655 194.176 348.655 194.176L363.091 167.914L361.778 167.914Z" fill="#6C63FF"/>
<path d="M382.12 272.307L366.372 319.58C366.372 319.58 333.563 356.348 351.936 356.348C370.309 356.348 379.495 323.519 379.495 323.519L401.805 276.247L382.12 272.307Z" fill="#FFB8B8"/>
<path d="M331.633 128.904C352.655 120.473 373.38 118.675 393.564 128.904V111.911C393.564 110.457 393.278 109.018 392.722 107.675C392.166 106.332 391.352 105.112 390.325 104.085C389.297 103.057 388.078 102.242 386.736 101.685C385.394 101.129 383.956 100.843 382.503 100.843H340.372C339.224 100.843 338.088 101.069 337.028 101.508C335.967 101.948 335.004 102.592 334.193 103.404C333.381 104.216 332.738 105.18 332.298 106.24C331.859 107.301 331.633 108.438 331.633 109.587V128.904Z" fill="#2F2E41"/>
<path d="M398.524 165.287C398.524 165.287 410.498 155.139 416.978 166.779C423.459 178.419 419.522 228.318 418.21 234.883C416.897 241.449 407.711 282.156 407.711 282.156L376.214 275.59C376.214 275.59 373.589 257.206 381.464 258.52L398.524 165.287Z" fill="#6C63FF"/>
<path d="M411.587 154.004C405.662 150.748 402.905 143.441 402.708 136.681C402.512 129.92 404.15 123.229 404.279 116.467C404.345 115.084 404.227 113.697 403.929 112.345C403.437 110.666 402.672 109.081 401.663 107.652C393.958 95.8393 380.565 87.5298 366.458 87.399C364.419 87.3723 362.396 87.7446 360.501 88.4948C359.042 89.0794 358.565 89.0078 358.286 90.7997C354.944 89.6965 351.32 89.8118 348.055 91.1252C344.821 92.4407 341.804 94.2382 339.108 96.4566C337.505 97.6491 335.993 98.9589 334.584 100.375C327.129 108.103 325.412 120.014 327.572 130.535C328.274 133.955 324.905 137.258 322.118 139.359C319.33 141.46 316.111 143.389 314.742 146.601C313.425 149.691 314.149 153.225 313.883 156.573C313.586 159.739 312.41 162.758 310.488 165.29C308.567 167.822 305.976 169.767 303.009 170.904C303.614 171.629 304.404 172.177 305.295 172.491C306.186 172.804 307.145 172.871 308.07 172.685C310.003 172.278 311.81 171.416 313.345 170.172C319.115 165.894 323.243 159.765 325.041 152.808C325.859 156.534 325.542 160.378 325.512 164.193C325.583 168.45 324.8 172.679 323.207 176.628C321.587 180.596 318.621 183.864 314.829 185.859C318.486 187.65 322.516 186.352 325.614 183.709C328.713 181.066 330.543 177.23 331.821 173.361C333.9 167.058 334.743 160.412 334.305 153.788C337.706 159.518 338.949 166.276 337.81 172.842C336.619 179.536 333.126 185.603 327.935 189.992C336.986 189.915 345.887 187.672 353.895 183.45C355.963 182.512 357.785 181.108 359.219 179.347C361.796 175.77 361.187 170.892 360.464 166.543C359.892 163.104 364.187 158.132 361.728 155.662C360.997 154.94 360.021 154.52 358.994 154.486C351.502 153.765 344.564 150 340.565 143.619C337.763 139.148 335.908 134.042 335.908 129.266C335.91 125.506 336.723 121.791 338.292 118.375C339.861 114.958 342.149 111.921 344.999 109.47C347.849 107.02 351.194 105.214 354.806 104.177C358.418 103.139 362.211 102.894 365.927 103.458C369.642 104.022 373.191 105.383 376.333 107.446C379.474 109.509 382.134 112.227 384.129 115.413C386.124 118.599 387.408 122.179 387.893 125.908C388.378 129.636 388.053 133.426 386.94 137.017C386.053 139.907 385.417 142.868 385.04 145.868C384.594 149.348 383.886 152.79 382.921 156.164C381.061 162.648 377.908 169.263 372.074 172.645C374.035 173.719 376.303 173.767 378.524 174.012C385.844 174.819 393.543 174.641 400.168 171.424C406.793 168.207 412.059 161.357 411.587 154.004Z" fill="#2F2E41"/>
<path opacity="0.2" d="M388.682 200.085L381.833 256.5L382.12 202.712L388.682 200.085Z" fill="black"/>
<path opacity="0.2" d="M411.186 266.706L408.367 284.125L414.928 286.752L411.186 266.706Z" fill="black"/>
</svg>
